<?xml version="1.0" encoding="UTF-8" standalone="no"?>
<!-- Created with Inkscape (http://www.inkscape.org/) -->

<svg
   width="1920mm"
   height="1920mm"
   viewBox="0 0 1920 1920"
   version="1.1"
   id="svg1"
   xml:space="preserve"
   inkscape:version="1.4.3 (0d15f75042, 2025-12-25)"
   sodipodi:docname="default.svg"
   xmlns:inkscape="http://www.inkscape.org/namespaces/inkscape"
   xmlns:sodipodi="http://sodipodi.sourceforge.net/DTD/sodipodi-0.dtd"
   xmlns="http://www.w3.org/2000/svg"
   xmlns:svg="http://www.w3.org/2000/svg"><sodipodi:namedview
     id="namedview1"
     pagecolor="#000000"
     bordercolor="#000000"
     borderopacity="0.25"
     inkscape:showpageshadow="2"
     inkscape:pageopacity="0.0"
     inkscape:pagecheckerboard="0"
     inkscape:deskcolor="#d1d1d1"
     inkscape:document-units="mm"
     inkscape:zoom="0.089419367"
     inkscape:cx="3964.4655"
     inkscape:cy="3327.0197"
     inkscape:window-width="1920"
     inkscape:window-height="1011"
     inkscape:window-x="0"
     inkscape:window-y="0"
     inkscape:window-maximized="1"
     inkscape:current-layer="layer1" /><defs
     id="defs1" /><g
     inkscape:label="Capa 1"
     inkscape:groupmode="layer"
     id="layer1"><path
       style="fill:#ffffff;fill-opacity:1"
       d="m 505.30556,1580.1602 v -113.8105 l 84.73156,-0.6639 c 46.60236,-0.3652 115.66232,-0.6642 153.46659,-0.6646 l 68.73504,-6e-4 v -112.9754 -112.9754 h 48.06937 l 48.06938,0 92.7818,64.9858 c 51.03,35.7422 93.2849,64.9859 93.8998,64.9859 0.8084,0 1.1178,13.283 1.1178,47.9895 v 47.9896 h 72.3189 c 39.7754,0 112.2096,0.2991 160.965,0.6646 l 88.6461,0.6647 v 113.8104 113.8104 H 961.70622 505.30556 Z M 1265.89,1463.272 c 11.685,-0.1599 30.8058,-0.1599 42.4908,0 11.6849,0.16 2.1245,0.2908 -21.2454,0.2908 -23.3699,0 -32.9304,-0.1308 -21.2454,-0.2908 z m -199.4174,-250.0467 c -50.7049,-35.5497 -92.20839,-64.942 -92.22994,-65.3163 -0.0215,-0.3742 14.3577,-21.1994 31.95384,-46.2782 17.5962,-25.0789 31.9931,-46.0418 31.9931,-46.5844 0,-0.5425 10.9537,-16.6093 24.3416,-35.7038 13.3879,-19.0946 46.9817,-67.11041 74.6529,-106.70179 95.7742,-137.03191 106.271,-151.97402 107.8619,-153.54048 0.879,-0.86546 15.7701,-21.89096 33.0913,-46.72333 17.3213,-24.83238 31.9592,-45.04473 32.5289,-44.91633 2.3408,0.52764 185.3644,129.28939 185.1533,130.26001 -0.1262,0.58005 -14.5418,21.5005 -32.0346,46.48988 -17.4929,24.98939 -44.1691,63.20638 -59.2806,84.92666 -97.647,140.35128 -244.0025,348.84178 -244.8412,348.78798 -0.5499,-0.035 -42.4856,-29.1502 -93.1905,-64.6999 z M 227.36606,734.34011 v -57.14805 h 113.97519 113.9752 v 56.4877 56.48771 l -87.73091,0.002 c -48.25199,0.001 -99.54083,0.29828 -113.97519,0.66035 l -26.24429,0.65829 z M 1469.4052,640.35033 c -50.6938,-35.5499 -96.3589,-67.51935 -101.478,-71.04322 l -9.3074,-6.40703 V 448.08385 333.26763 l 167.371,-3.6e-4 167.371,-3.5e-4 -0.6542,17.24625 c -0.3599,9.48543 -0.6564,51.8887 -0.659,94.22949 l -0,76.98324 -16.5434,23.49489 c -9.0988,12.92218 -38.0043,54.18537 -64.2343,91.69596 -26.23,37.51059 -48.1408,68.17153 -48.6907,68.13542 -0.5499,-0.0361 -42.4765,-29.15194 -93.1702,-64.70184 z M 227.36606,450.24146 V 336.26627 h 113.4753 113.4753 V 445.6029 c 0,60.13514 0.28611,111.42398 0.63579,113.97519 l 0.63578,4.63856 H 341.47715 227.36606 Z M 625.0295,562.54433 568.29185,562.20057 V 448.23364 334.2667 h 337.92644 337.92641 v 113.32527 113.32527 l -38.2416,0.64613 c -43.6611,0.73769 -495.17477,1.50019 -580.8736,0.98096 z"
       id="path1" /></g></svg>
