<?xml version="1.0" encoding="UTF-8" standalone="no"?>
<!-- Created with Inkscape (http://www.inkscape.org/) -->

<svg
   width="1920"
   height="1920"
   viewBox="0 0 508 508"
   version="1.1"
   id="svg1"
   xml:space="preserve"
   inkscape:export-filename="hover.svg"
   inkscape:export-xdpi="96"
   inkscape:export-ydpi="96"
   xmlns:inkscape="http://www.inkscape.org/namespaces/inkscape"
   xmlns:sodipodi="http://sodipodi.sourceforge.net/DTD/sodipodi-0.dtd"
   xmlns="http://www.w3.org/2000/svg"
   xmlns:svg="http://www.w3.org/2000/svg"><sodipodi:namedview
     id="namedview1"
     pagecolor="#000000"
     bordercolor="#000000"
     borderopacity="0.25"
     inkscape:showpageshadow="2"
     inkscape:pageopacity="0.0"
     inkscape:pagecheckerboard="0"
     inkscape:deskcolor="#d1d1d1"
     inkscape:document-units="mm"><inkscape:page
       x="0"
       y="0"
       width="508"
       height="508"
       id="page2"
       margin="0"
       bleed="0" /></sodipodi:namedview><defs
     id="defs1" /><g
     inkscape:label="Capa 1"
     inkscape:groupmode="layer"
     id="layer1"><path
       style="fill:#ffffff;fill-opacity:1"
       d="M 305.21356,379.42919 283.79992,358.01432 305.2634,336.3681 c 11.80491,-11.90542 34.21071,-34.3857 49.79067,-49.95618 l 28.32718,-28.30995 v -4.06296 -4.06295 l -49.74167,-49.87569 c -27.35791,-27.43163 -49.74166,-49.95207 -49.74166,-50.04541 0,-0.0933 9.63874,-9.80792 21.41943,-21.58794 l 21.41944,-21.41821 58.32599,58.19591 58.32599,58.1959 0.0264,30.48023 0.0265,30.48023 -58.22861,58.15519 c -32.02573,31.98535 -58.30899,58.18502 -58.40723,58.22149 -0.0982,0.0365 -9.81476,-9.57039 -21.59227,-21.34857 z M 122.70052,342.47771 64.558333,284.40089 V 254 223.59911 l 58.142187,-58.07682 58.14219,-58.07681 21.3651,21.35217 c 11.75081,11.74369 21.36511,21.48884 21.36511,21.65589 0,0.16705 -22.32422,22.68728 -49.60938,50.04496 l -49.60937,49.74124 V 254 v 3.76026 l 49.60937,49.74124 c 27.28516,27.35768 49.60938,49.87791 49.60938,50.04496 0,0.16705 -9.6143,9.9122 -21.36511,21.65589 l -21.3651,21.35217 z"
       id="path1" /></g></svg>
