<?xml version="1.0" encoding="UTF-8" standalone="no"?>
<!-- Created with Inkscape (http://www.inkscape.org/) -->

<svg
   width="1920"
   height="1920"
   viewBox="0 0 507.99999 508"
   version="1.1"
   id="svg1"
   xml:space="preserve"
   sodipodi:docname="click.svg"
   inkscape:version="1.2.2 (b0a8486541, 2022-12-01)"
   xmlns:inkscape="http://www.inkscape.org/namespaces/inkscape"
   xmlns:sodipodi="http://sodipodi.sourceforge.net/DTD/sodipodi-0.dtd"
   xmlns="http://www.w3.org/2000/svg"
   xmlns:svg="http://www.w3.org/2000/svg"><sodipodi:namedview
     id="namedview2918"
     pagecolor="#000000"
     bordercolor="#000000"
     borderopacity="0.25"
     inkscape:showpageshadow="2"
     inkscape:pageopacity="0"
     inkscape:pagecheckerboard="0"
     inkscape:deskcolor="#d1d1d1"
     showgrid="false"
     inkscape:zoom="0.40885417"
     inkscape:cx="961.22293"
     inkscape:cy="962.44586"
     inkscape:window-width="1920"
     inkscape:window-height="1011"
     inkscape:window-x="0"
     inkscape:window-y="0"
     inkscape:window-maximized="1"
     inkscape:current-layer="svg1" /><defs
     id="defs1" /><g
     id="layer1"
     transform="matrix(-1,0,0,1,508.09283,0)"><path
       style="fill:#ffffff;fill-opacity:1"
       d="m 284.48,448.15125 c -0.4609,-0.4609 -0.4609,-60.02285 0,-60.48375 0.24477,-0.24477 12.0944,-0.3175 51.72604,-0.3175 h 51.40854 v -51.46146 -51.46146 h 30.25128 30.25128 l 0.18404,81.65307 c 0.13868,61.52834 0.10882,81.74371 -0.12117,82.02084 -0.25936,0.3125 -12.55649,0.36776 -81.84387,0.36776 -63.06616,0 -81.61057,-0.0719 -81.85614,-0.3175 z M 60.060331,186.99427 c -4.6e-5,-19.97273 -0.07931,-56.76305 -0.176133,-81.75625 L 59.70815,59.795833 h 81.93238 81.93239 v 30.294792 30.294795 h -51.72605 -51.72604 v 51.46145 51.46146 H 90.090625 60.060417 Z"
       id="path2" /></g></svg>
