<?xml version="1.0" encoding="UTF-8" standalone="no"?>
<!-- Created with Inkscape (http://www.inkscape.org/) -->

<svg
   width="1920"
   height="1920"
   viewBox="0 0 507.99999 508"
   version="1.1"
   id="svg1"
   xml:space="preserve"
   sodipodi:docname="default.svg"
   inkscape:version="1.2.2 (b0a8486541, 2022-12-01)"
   xmlns:inkscape="http://www.inkscape.org/namespaces/inkscape"
   xmlns:sodipodi="http://sodipodi.sourceforge.net/DTD/sodipodi-0.dtd"
   xmlns="http://www.w3.org/2000/svg"
   xmlns:svg="http://www.w3.org/2000/svg"><sodipodi:namedview
     id="namedview3041"
     pagecolor="#ffffff"
     bordercolor="#000000"
     borderopacity="0.25"
     inkscape:showpageshadow="2"
     inkscape:pageopacity="0.0"
     inkscape:pagecheckerboard="0"
     inkscape:deskcolor="#d1d1d1"
     showgrid="false"
     inkscape:zoom="0.40885417"
     inkscape:cx="961.22293"
     inkscape:cy="962.44586"
     inkscape:window-width="1920"
     inkscape:window-height="1011"
     inkscape:window-x="0"
     inkscape:window-y="0"
     inkscape:window-maximized="1"
     inkscape:current-layer="svg1" /><defs
     id="defs1" /><g
     id="layer1"
     transform="matrix(-1,0,0,1,508.09284,0)"><path
       style="fill:#ffffff;fill-opacity:1"
       d="m 224.41958,388.09083 c -0.4609,-0.4609 -0.4609,-60.02284 0,-60.48375 0.24477,-0.24476 12.0944,-0.3175 51.72605,-0.3175 h 51.40854 v -51.46146 -51.46145 h 30.25127 30.25128 l 0.18404,81.65307 c 0.13869,61.52833 0.10882,81.74371 -0.12117,82.02083 -0.25936,0.31251 -12.55649,0.36776 -81.84386,0.36776 -63.06617,0 -81.61058,-0.0719 -81.85615,-0.3175 z M 120.12075,247.05469 c -5e-5,-19.97274 -0.0793,-56.76305 -0.17614,-81.75625 l -0.17604,-45.44219 h 81.93238 81.93238 v 30.29479 30.29479 h -51.72604 -51.72604 v 51.46146 51.46146 h -30.03021 -30.03021 z"
       id="path2" /></g></svg>
