<?xml version="1.0" encoding="UTF-8" standalone="no"?>
<!-- Created with Inkscape (http://www.inkscape.org/) -->

<svg
   width="1920"
   height="1920"
   viewBox="0 0 507.99999 508"
   version="1.1"
   id="svg1"
   xml:space="preserve"
   xmlns="http://www.w3.org/2000/svg"
   xmlns:svg="http://www.w3.org/2000/svg"><defs
     id="defs1" /><g
     id="layer1"><path
       style="fill:#ffffff;fill-opacity:1"
       d="m 60.120334,447.20986 c 0.0669,-0.25582 0.803113,-1.41668 1.636029,-2.57968 0.832916,-1.16301 3.048621,-4.25768 4.923789,-6.87706 1.875169,-2.61937 3.840094,-5.35781 4.366501,-6.08541 0.872925,-1.20657 6.858555,-9.56192 8.434658,-11.77396 0.362899,-0.50932 2.600796,-3.62232 4.973106,-6.91777 2.372309,-3.29545 6.337352,-8.81589 8.811206,-12.26765 2.473854,-3.45175 6.402917,-8.92907 8.731247,-12.17182 2.32834,-3.24274 5.70956,-7.96168 7.51384,-10.48652 1.80428,-2.52484 3.62595,-5.06686 4.04815,-5.64895 0.85575,-1.17979 3.4861,-4.8685 5.10676,-7.16154 0.58209,-0.82357 1.35599,-1.89889 1.71979,-2.3896 1.12963,-1.52366 4.38744,-6.07364 6.61178,-9.23427 0.7624,-1.08331 7.14613,-10.00372 8.33115,-11.64167 1.07397,-1.48444 5.5325,-7.70273 12.04457,-16.79847 2.4011,-3.35373 4.68818,-6.54199 5.0824,-7.08503 0.64061,-0.88243 7.10125,-9.88169 8.78154,-12.23213 1.43711,-2.01026 8.1099,-11.30661 8.83101,-12.30312 0.42122,-0.58209 2.21384,-3.0824 3.9836,-5.55625 1.76977,-2.47386 4.71038,-6.58151 6.53471,-9.12813 1.82432,-2.54661 3.64039,-5.08374 4.0357,-5.63806 0.39531,-0.55432 1.195,-1.65257 1.77708,-2.44056 0.58209,-0.78798 1.77271,-2.45529 2.64584,-3.70513 0.87312,-1.24983 1.88515,-2.67992 2.24896,-3.17798 0.69339,-0.94927 1.23615,-1.70124 4.93331,-6.83482 2.44807,-3.39921 2.42664,-3.30958 1.17789,-4.92636 -0.41342,-0.53527 -5.30083,-7.31879 -8.38762,-11.64167 -0.36368,-0.50932 -2.32787,-3.24776 -4.36485,-6.08542 -2.03699,-2.83765 -4.00087,-5.57609 -4.36418,-6.08541 -1.91025,-2.67799 -7.60566,-10.62698 -8.43598,-11.77396 -1.01323,-1.39964 -5.28197,-7.38937 -6.22257,-8.73125 -0.30601,-0.43656 -1.42099,-1.98438 -2.47773,-3.43959 -1.05674,-1.4552 -2.42406,-3.3602 -3.03849,-4.23333 -1.32074,-1.87682 -2.79567,-3.94313 -4.24934,-5.95312 -0.57884,-0.80037 -1.59595,-2.22912 -2.26025,-3.175 -0.6643,-0.94589 -1.65343,-2.33814 -2.19807,-3.0939 -0.54463,-0.75575 -2.28919,-3.19653 -3.87679,-5.42396 -1.58759,-2.22742 -3.32573,-4.64516 -3.86252,-5.37277 -0.53679,-0.7276 -2.39301,-3.30346 -4.12492,-5.72412 -4.13957,-5.78579 -11.11222,-15.51291 -16.3781,-22.84807 -2.32833,-3.24328 -6.0788,-8.47379 -8.33438,-11.62336 -6.44908,-9.00517 -10.74,-14.98788 -11.78056,-16.42528 -0.52672,-0.72761 -2.01115,-2.8112 -3.29873,-4.63021 -1.287578,-1.81901 -2.572815,-3.60495 -2.856084,-3.96875 -0.283268,-0.3638 -0.885906,-1.19724 -1.339196,-1.85208 -0.45329,-0.65485 -1.295709,-1.84547 -1.872042,-2.64584 -0.576333,-0.80036 -1.593208,-2.22911 -2.259723,-3.175 -0.666515,-0.94588 -1.655644,-2.33341 -2.198065,-3.08339 -0.542421,-0.74998 -2.285162,-3.190763 -3.872759,-5.423959 C 83.764405,93.505285 82.026268,91.082813 81.489476,90.355208 80.952683,89.627604 79.096469,87.05175 77.364556,84.631089 71.490997,76.421728 65.229919,67.690405 62.528605,63.941764 61.048453,61.887742 59.894621,60.114626 59.964533,60.001506 60.034445,59.888386 79.305454,59.795833 102.789,59.795833 h 42.69735 l 2.86151,3.993893 c 1.57383,2.196641 3.39729,4.753052 4.05214,5.680912 0.65484,0.927861 2.61937,3.664627 4.36562,6.081702 1.74625,2.417076 3.65125,5.077156 4.23334,5.91129 0.58208,0.834133 2.66567,3.745248 4.6302,6.469144 1.96453,2.723895 5.08429,7.06217 6.9328,9.640611 1.84851,2.578445 3.79207,5.283385 4.31903,6.010995 2.15475,2.9752 4.98585,6.9363 5.57856,7.8052 0.34743,0.50933 1.11113,1.58089 1.6971,2.38125 0.58597,0.80037 1.48289,2.05052 1.99316,2.77813 0.51026,0.7276 1.52324,2.15635 2.25106,3.175 0.72782,1.01864 1.78948,2.50693 2.35924,3.30729 0.56977,0.80036 2.06863,2.88396 3.3308,4.63021 1.26218,1.74625 2.75229,3.82984 3.31136,4.63021 0.55907,0.80036 2.39542,3.36021 4.08078,5.68854 1.68536,2.32833 3.6462,5.06677 4.35743,6.08541 0.71123,1.01865 2.6775,3.75709 4.36949,6.08542 1.69199,2.32833 3.27575,4.53099 3.51947,4.89479 0.24371,0.36381 2.02864,2.86412 3.9665,5.55625 1.93787,2.69214 3.82095,5.31151 4.18463,5.82084 0.36369,0.50932 2.32788,3.24776 4.36486,6.08541 2.03699,2.83766 4.00087,5.5761 4.36418,6.08542 1.91025,2.67799 7.60566,10.62697 8.43598,11.77396 0.52673,0.7276 2.01746,2.8112 3.31274,4.63021 1.29528,1.81901 2.78627,3.9026 3.31332,4.6302 0.52704,0.72761 2.01173,2.8112 3.29931,4.63021 1.28757,1.81901 2.57281,3.60495 2.85608,3.96875 0.28327,0.36381 0.88591,1.19724 1.3392,1.85209 0.45329,0.65484 1.29571,1.84547 1.87204,2.64583 0.57633,0.80036 1.59321,2.22911 2.25972,3.175 0.66652,0.94589 1.65565,2.33341 2.19807,3.08339 0.54242,0.74999 2.28516,3.19077 3.87276,5.42396 1.58759,2.2332 3.32506,4.65567 3.86104,5.38327 0.87868,1.19284 3.18825,4.40898 9.00854,12.5446 1.08403,1.51526 3.30854,4.61089 4.94336,6.87917 1.63482,2.26828 2.97427,4.33195 2.97656,4.58593 0.002,0.25398 -0.88281,1.68273 -1.9669,3.175 -1.08408,1.49227 -2.22143,3.07041 -2.52744,3.50697 -0.93159,1.32904 -5.20375,7.32385 -6.22225,8.73125 -1.61417,2.23051 -9.55525,13.2883 -13.88549,19.33529 -2.25558,3.1498 -6.00605,8.38049 -8.33438,11.62377 -5.26588,7.33516 -12.23853,17.06228 -16.3781,22.84807 -1.73191,2.42066 -3.58813,4.99652 -4.12492,5.72412 -0.53679,0.72761 -2.27493,3.14535 -3.86252,5.37277 -1.5876,2.22743 -3.33216,4.66821 -3.87679,5.42396 -0.54464,0.75576 -1.53377,2.14801 -2.19807,3.0939 -0.6643,0.94588 -1.68141,2.37463 -2.26025,3.175 -1.45367,2.00999 -2.9286,4.0763 -4.24934,5.95312 -0.61443,0.87313 -1.98175,2.77813 -3.03849,4.23333 -1.05674,1.45521 -2.17146,3.00303 -2.47715,3.43959 -0.62336,0.89022 -6.86079,9.59654 -8.3404,11.64166 -0.83571,1.15513 -6.58389,9.17833 -8.4354,11.77396 -0.36331,0.50933 -2.32719,3.24776 -4.36417,6.08542 -2.03699,2.83766 -4.00152,5.57609 -4.36563,6.08542 -1.08078,1.51183 -8.00137,11.15633 -8.82833,12.30312 -0.41974,0.58209 -2.17192,3.02287 -3.89373,5.42396 -1.72182,2.40109 -3.56907,4.96094 -4.10502,5.68854 -0.53594,0.72761 -2.27339,3.14535 -3.86098,5.37277 -1.5876,2.22743 -3.33215,4.66821 -3.87679,5.42396 -0.54464,0.75576 -1.53377,2.14801 -2.19807,3.0939 -0.66429,0.94588 -1.68141,2.37463 -2.26025,3.175 -1.50615,2.08256 -3.00635,4.18116 -3.97192,5.55625 -0.45982,0.65484 -1.72368,2.41101 -2.80858,3.9026 l -1.97254,2.71198 h -42.73786 c -40.646559,0 -42.73192,-0.0228 -42.616236,-0.46514 z m 169.862496,0 c 0.0669,-0.25582 0.80311,-1.41668 1.63603,-2.57968 0.83292,-1.16301 3.04862,-4.25768 4.92379,-6.87706 1.87517,-2.61937 3.84009,-5.35781 4.3665,-6.08541 0.87293,-1.20657 6.85855,-9.56192 8.43466,-11.77396 0.3629,-0.50932 2.60079,-3.62232 4.9731,-6.91777 2.37231,-3.29545 6.33736,-8.81589 8.81121,-12.26765 2.47385,-3.45175 6.40292,-8.92907 8.73125,-12.17182 2.32833,-3.24274 5.70956,-7.96168 7.51384,-10.48652 1.80427,-2.52484 3.62594,-5.06686 4.04815,-5.64895 0.85575,-1.17979 3.4861,-4.8685 5.10676,-7.16154 0.58208,-0.82357 1.35599,-1.89889 1.71979,-2.3896 1.12963,-1.52366 4.38743,-6.07364 6.61178,-9.23427 0.76239,-1.08331 7.14613,-10.00372 8.33115,-11.64167 1.07396,-1.48444 5.5325,-7.70273 12.04457,-16.79847 2.40109,-3.35373 4.68817,-6.54199 5.0824,-7.08503 0.64061,-0.88243 7.10124,-9.88169 8.78154,-12.23213 1.4371,-2.01026 8.10989,-11.30661 8.83101,-12.30312 0.42122,-0.58209 2.21384,-3.0824 3.9836,-5.55625 1.76976,-2.47386 4.71038,-6.58151 6.5347,-9.12813 1.82433,-2.54661 3.64039,-5.08374 4.03571,-5.63806 0.39531,-0.55432 1.195,-1.65257 1.77708,-2.44056 0.58209,-0.78798 1.77271,-2.45529 2.64584,-3.70513 0.87312,-1.24983 1.88515,-2.67992 2.24895,-3.17798 0.6934,-0.94927 1.23616,-1.70124 4.93332,-6.83482 2.44807,-3.39921 2.42664,-3.30958 1.17788,-4.92636 -0.41342,-0.53527 -5.30083,-7.31879 -8.38761,-11.64167 -0.36368,-0.50932 -2.32787,-3.24776 -4.36486,-6.08542 -2.03698,-2.83765 -4.00086,-5.57609 -4.36417,-6.08541 -1.91025,-2.67799 -7.60566,-10.62698 -8.43598,-11.77396 -1.01323,-1.39964 -5.28197,-7.38937 -6.22257,-8.73125 -0.30601,-0.43656 -1.42099,-1.98438 -2.47773,-3.43959 -1.05675,-1.4552 -2.42407,-3.3602 -3.03849,-4.23333 -1.32074,-1.87682 -2.79567,-3.94313 -4.24934,-5.95312 -0.57884,-0.80037 -1.59596,-2.22912 -2.26025,-3.175 -0.6643,-0.94589 -1.65343,-2.33814 -2.19807,-3.0939 -0.54464,-0.75575 -2.28919,-3.19653 -3.87679,-5.42396 -1.5876,-2.22742 -3.32573,-4.64516 -3.86253,-5.37277 -0.53679,-0.7276 -2.393,-3.30346 -4.12491,-5.72412 -4.13957,-5.78579 -11.11222,-15.51291 -16.3781,-22.84807 -2.32834,-3.24328 -6.07881,-8.47379 -8.33438,-11.62336 -6.44908,-9.00517 -10.74,-14.98788 -11.78056,-16.42528 -0.52673,-0.72761 -2.01116,-2.8112 -3.29873,-4.63021 -1.28758,-1.81901 -2.57282,-3.60495 -2.85609,-3.96875 -0.28327,-0.3638 -0.8859,-1.19724 -1.33919,-1.85208 -0.45329,-0.65485 -1.29571,-1.84547 -1.87204,-2.64584 -0.57634,-0.80036 -1.59321,-2.22911 -2.25973,-3.175 -0.66651,-0.94588 -1.65564,-2.33341 -2.19806,-3.08339 -0.54242,-0.74998 -2.28517,-3.190763 -3.87276,-5.423959 -1.5876,-2.233196 -3.32573,-4.655668 -3.86253,-5.383273 -0.53679,-0.727604 -2.393,-3.303458 -4.12492,-5.724119 -5.87356,-8.209361 -12.13463,-16.940684 -14.83595,-20.689325 -1.48015,-2.054022 -2.63398,-3.827138 -2.56407,-3.940258 0.0699,-0.11312 19.34092,-0.205673 42.82446,-0.205673 h 42.69736 l 2.86151,3.993893 c 1.57383,2.196641 3.39729,4.753052 4.05213,5.680912 0.65485,0.927861 2.61938,3.664627 4.36563,6.081702 1.74625,2.417076 3.65125,5.077156 4.23333,5.91129 0.58209,0.834133 2.66568,3.745248 4.63021,6.469144 1.96453,2.723895 5.08429,7.06217 6.9328,9.640611 1.8485,2.578445 3.79207,5.283385 4.31903,6.010995 2.15475,2.9752 4.98585,6.9363 5.57856,7.8052 0.34743,0.50933 1.11112,1.58089 1.6971,2.38125 0.58597,0.80037 1.48289,2.05052 1.99315,2.77813 0.51027,0.7276 1.52324,2.15635 2.25107,3.175 0.72782,1.01864 1.78948,2.50693 2.35924,3.30729 0.56977,0.80036 2.06862,2.88396 3.3308,4.63021 1.26217,1.74625 2.75228,3.82984 3.31136,4.63021 0.55907,0.80036 2.39542,3.36021 4.08078,5.68854 1.68535,2.32833 3.6462,5.06677 4.35743,6.08541 0.71123,1.01865 2.6775,3.75709 4.36949,6.08542 1.69198,2.32833 3.27574,4.53099 3.51946,4.89479 0.24372,0.36381 2.02865,2.86412 3.96651,5.55625 1.93786,2.69214 3.82095,5.31151 4.18463,5.82084 0.36369,0.50932 2.32787,3.24776 4.36486,6.08541 2.03699,2.83766 4.00086,5.5761 4.36417,6.08542 1.91025,2.67799 7.60566,10.62697 8.43599,11.77396 0.52672,0.7276 2.01746,2.8112 3.31274,4.63021 1.29528,1.81901 2.78627,3.9026 3.31331,4.6302 0.52705,0.72761 2.01174,2.8112 3.29931,4.63021 1.28758,1.81901 2.57282,3.60495 2.85609,3.96875 0.28327,0.36381 0.8859,1.19724 1.33919,1.85209 0.45329,0.65484 1.29571,1.84547 1.87205,2.64583 0.57633,0.80036 1.5932,2.22911 2.25972,3.175 0.66651,0.94589 1.65564,2.33341 2.19806,3.08339 0.54242,0.74999 2.28517,3.19077 3.87276,5.42396 1.5876,2.2332 3.32507,4.65567 3.86104,5.38327 0.87869,1.19284 3.18826,4.40898 9.00855,12.5446 1.08403,1.51526 3.30854,4.61089 4.94336,6.87917 1.63481,2.26828 2.97427,4.33195 2.97656,4.58593 0.002,0.25398 -0.88282,1.68273 -1.9669,3.175 -1.08409,1.49227 -2.22144,3.07041 -2.52744,3.50697 -0.9316,1.32904 -5.20375,7.32385 -6.22225,8.73125 -1.61418,2.23051 -9.55525,13.2883 -13.8855,19.33529 -2.25557,3.1498 -6.00604,8.38049 -8.33437,11.62377 -5.26588,7.33516 -12.23853,17.06228 -16.3781,22.84807 -1.73191,2.42066 -3.58813,4.99652 -4.12492,5.72412 -0.53679,0.72761 -2.27493,3.14535 -3.86253,5.37277 -1.58759,2.22743 -3.33215,4.66821 -3.87679,5.42396 -0.54464,0.75576 -1.53376,2.14801 -2.19806,3.0939 -0.6643,0.94588 -1.68141,2.37463 -2.26025,3.175 -1.45367,2.00999 -2.92861,4.0763 -4.24934,5.95312 -0.61443,0.87313 -1.98175,2.77813 -3.03849,4.23333 -1.05675,1.45521 -2.17147,3.00303 -2.47716,3.43959 -0.62335,0.89022 -6.86079,9.59654 -8.34039,11.64166 -0.83571,1.15513 -6.58389,9.17833 -8.4354,11.77396 -0.36331,0.50933 -2.32719,3.24776 -4.36418,6.08542 -2.03698,2.83766 -4.00151,5.57609 -4.36562,6.08542 -1.08078,1.51183 -8.00137,11.15633 -8.82833,12.30312 -0.41974,0.58209 -2.17193,3.02287 -3.89374,5.42396 -1.72181,2.40109 -3.56907,4.96094 -4.10501,5.68854 -0.53595,0.72761 -2.27339,3.14535 -3.86099,5.37277 -1.58759,2.22743 -3.33215,4.66821 -3.87679,5.42396 -0.54463,0.75576 -1.53376,2.14801 -2.19806,3.0939 -0.6643,0.94588 -1.68141,2.37463 -2.26025,3.175 -1.50616,2.08256 -3.00636,4.18116 -3.97192,5.55625 -0.45982,0.65484 -1.72368,2.41101 -2.80858,3.9026 l -1.97254,2.71198 h -42.73787 c -40.64655,0 -42.73191,-0.0228 -42.61623,-0.46514 z"
       id="path16" /></g></svg>
