<?xml version="1.0" encoding="UTF-8" standalone="no"?>
<!-- Created with Inkscape (http://www.inkscape.org/) -->

<svg
   width="1920"
   height="1920"
   viewBox="0 0 507.99999 508"
   version="1.1"
   id="svg1"
   xml:space="preserve"
   sodipodi:docname="up.svg"
   inkscape:version="1.4.3 (0d15f75042, 2025-12-25)"
   xmlns:inkscape="http://www.inkscape.org/namespaces/inkscape"
   xmlns:sodipodi="http://sodipodi.sourceforge.net/DTD/sodipodi-0.dtd"
   xmlns="http://www.w3.org/2000/svg"
   xmlns:svg="http://www.w3.org/2000/svg"><sodipodi:namedview
     id="namedview1"
     pagecolor="#ffffff"
     bordercolor="#000000"
     borderopacity="0.25"
     inkscape:showpageshadow="2"
     inkscape:pageopacity="0.0"
     inkscape:pagecheckerboard="0"
     inkscape:deskcolor="#d1d1d1"
     inkscape:zoom="0.42135417"
     inkscape:cx="959.99999"
     inkscape:cy="959.99999"
     inkscape:window-width="1920"
     inkscape:window-height="1012"
     inkscape:window-x="0"
     inkscape:window-y="0"
     inkscape:window-maximized="1"
     inkscape:current-layer="layer1" /><defs
     id="defs1" /><g
     id="layer1"><path
       style="fill:#ffffff;fill-opacity:1"
       d="m 450.46562,450.60626 c -0.25582,-0.0669 -1.41668,-0.80312 -2.57968,-1.63603 -1.16301,-0.83292 -4.25768,-3.04862 -6.87706,-4.92379 -2.61937,-1.87517 -5.35781,-3.8401 -6.08541,-4.3665 -1.20657,-0.87293 -9.56192,-6.85856 -11.77396,-8.43466 -0.50932,-0.3629 -3.62232,-2.6008 -6.91777,-4.97311 -3.29545,-2.37231 -8.81589,-6.33735 -12.26765,-8.8112 -3.45175,-2.47386 -8.92907,-6.40292 -12.17182,-8.73125 -3.24274,-2.32834 -7.96168,-5.70956 -10.48652,-7.51384 -2.52484,-1.80428 -5.06686,-3.62595 -5.64895,-4.04815 -1.17979,-0.85575 -4.8685,-3.4861 -7.16154,-5.10676 -0.82357,-0.58209 -1.89889,-1.35599 -2.3896,-1.71979 -1.52366,-1.12963 -6.07364,-4.38744 -9.23427,-6.61178 -1.08331,-0.7624 -10.00372,-7.14613 -11.64167,-8.33115 -1.48444,-1.07397 -7.70273,-5.5325 -16.79847,-12.04457 -3.35373,-2.4011 -6.54199,-4.68818 -7.08503,-5.0824 -0.88243,-0.64061 -9.88169,-7.10125 -12.23213,-8.78154 -2.01026,-1.43711 -11.30661,-8.1099 -12.30312,-8.83101 -0.58209,-0.42122 -3.0824,-2.21384 -5.55625,-3.9836 -2.47386,-1.76977 -6.58151,-4.71038 -9.12813,-6.53471 -2.54661,-1.82432 -5.08374,-3.64039 -5.63806,-4.0357 -0.55432,-0.39531 -1.65257,-1.195 -2.44056,-1.77708 -0.78798,-0.58209 -2.45529,-1.77271 -3.70513,-2.64584 -1.24983,-0.87312 -2.67992,-1.88515 -3.17798,-2.24896 -0.94927,-0.69339 -1.70124,-1.23615 -6.83482,-4.93331 -3.39921,-2.44807 -3.30958,-2.42664 -4.92636,-1.17789 -0.53527,0.41342 -7.31879,5.30083 -11.64167,8.38762 -0.50932,0.36368 -3.24776,2.32787 -6.08542,4.36485 -2.83765,2.03699 -5.57609,4.00087 -6.08541,4.36418 -2.67799,1.91025 -10.62698,7.60566 -11.77396,8.43598 -1.39964,1.01323 -7.38937,5.28197 -8.73125,6.22257 -0.43656,0.30601 -1.98438,1.42099 -3.43959,2.47773 -1.4552,1.05674 -3.3602,2.42406 -4.23333,3.03849 -1.87682,1.32074 -3.94313,2.79567 -5.95312,4.24934 -0.80037,0.57884 -2.22912,1.59595 -3.175,2.26025 -0.94589,0.6643 -2.33814,1.65343 -3.0939,2.19807 -0.75575,0.54463 -3.19653,2.28919 -5.42396,3.87679 -2.22742,1.58759 -4.64516,3.32573 -5.37277,3.86252 -0.7276,0.53679 -3.30346,2.39301 -5.72412,4.12492 -5.78579,4.13957 -15.51291,11.11222 -22.84807,16.3781 -3.24328,2.32833 -8.47379,6.0788 -11.62336,8.33438 -9.00517,6.44908 -14.98788,10.74 -16.42528,11.78056 -0.72761,0.52672 -2.8112,2.01115 -4.63021,3.29873 -1.81901,1.28758 -3.60495,2.57281 -3.96875,2.85608 -0.3638,0.28327 -1.19724,0.88591 -1.85208,1.3392 -0.65485,0.45329 -1.84547,1.29571 -2.64584,1.87204 -0.80036,0.57633 -2.22911,1.59321 -3.175,2.25972 -0.94588,0.66652 -2.33341,1.65565 -3.08339,2.19807 -0.74998,0.54242 -3.19076,2.28516 -5.423959,3.87276 -2.2332,1.58759 -4.65567,3.32573 -5.38327,3.86252 -0.72761,0.5368 -3.30346,2.39301 -5.72412,4.12492 -8.20936,5.87356 -16.94069,12.13464 -20.68933,14.83595 -2.05402,1.48016 -3.82714,2.63399 -3.94026,2.56408 -0.11312,-0.0699 -0.20567,-19.34092 -0.20567,-42.82447 v -42.69735 l 3.99389,-2.86151 c 2.19665,-1.57383 4.75306,-3.39729 5.68092,-4.05214 0.92786,-0.65484 3.66462,-2.61937 6.0817,-4.36562 2.41707,-1.74625 5.07715,-3.65125 5.91129,-4.23334 0.83413,-0.58208 3.74525,-2.66567 6.46914,-4.6302 2.7239,-1.96453 7.06217,-5.08429 9.640609,-6.9328 2.57845,-1.84851 5.28339,-3.79207 6.011,-4.31903 2.9752,-2.15475 6.9363,-4.98585 7.8052,-5.57856 0.50933,-0.34743 1.58089,-1.11113 2.38125,-1.6971 0.80037,-0.58597 2.05052,-1.48289 2.77813,-1.99316 0.7276,-0.51026 2.15635,-1.52324 3.175,-2.25106 1.01864,-0.72782 2.50693,-1.78948 3.30729,-2.35924 0.80036,-0.56977 2.88396,-2.06863 4.63021,-3.3308 1.74625,-1.26218 3.82984,-2.75229 4.63021,-3.31136 0.80036,-0.55907 3.36021,-2.39542 5.68854,-4.08078 2.32833,-1.68536 5.06677,-3.6462 6.08541,-4.35743 1.01865,-0.71123 3.75709,-2.6775 6.08542,-4.36949 2.32833,-1.69199 4.53099,-3.27575 4.89479,-3.51947 0.36381,-0.24371 2.86412,-2.02864 5.55625,-3.9665 2.69214,-1.93787 5.31151,-3.82095 5.82084,-4.18463 0.50932,-0.36369 3.24776,-2.32788 6.08541,-4.36486 2.83766,-2.03699 5.5761,-4.00087 6.08542,-4.36418 2.67799,-1.91025 10.62697,-7.60566 11.77396,-8.43598 0.7276,-0.52673 2.8112,-2.01746 4.63021,-3.31274 1.81901,-1.29528 3.9026,-2.78627 4.6302,-3.31332 0.72761,-0.52704 2.8112,-2.01173 4.63021,-3.29931 1.81901,-1.28757 3.60495,-2.57281 3.96875,-2.85608 0.36381,-0.28327 1.19724,-0.88591 1.85209,-1.3392 0.65484,-0.45329 1.84547,-1.29571 2.64583,-1.87204 0.80036,-0.57633 2.22911,-1.59321 3.175,-2.25972 0.94589,-0.66652 2.33341,-1.65565 3.08339,-2.19807 0.74999,-0.54242 3.19077,-2.28516 5.42396,-3.87276 2.2332,-1.58759 4.65567,-3.32506 5.38327,-3.86104 1.19284,-0.87868 4.40898,-3.18825 12.5446,-9.00854 1.51526,-1.08403 4.61089,-3.30854 6.87917,-4.94336 2.26828,-1.63482 4.33195,-2.97427 4.58593,-2.97656 0.25398,-0.002 1.68273,0.88281 3.175,1.9669 1.49227,1.08408 3.07041,2.22143 3.50697,2.52744 1.32904,0.93159 7.32385,5.20375 8.73125,6.22225 2.23051,1.61417 13.2883,9.55525 19.33529,13.88549 3.1498,2.25558 8.38049,6.00605 11.62377,8.33438 7.33516,5.26588 17.06228,12.23853 22.84807,16.3781 2.42066,1.73191 4.99652,3.58813 5.72412,4.12492 0.72761,0.53679 3.14535,2.27493 5.37277,3.86252 2.22743,1.5876 4.66821,3.33216 5.42396,3.87679 0.75576,0.54464 2.14801,1.53377 3.0939,2.19807 0.94588,0.6643 2.37463,1.68141 3.175,2.26025 2.00999,1.45367 4.0763,2.9286 5.95312,4.24934 0.87313,0.61443 2.77813,1.98175 4.23333,3.03849 1.45521,1.05674 3.00303,2.17146 3.43959,2.47715 0.89022,0.62336 9.59654,6.86079 11.64166,8.3404 1.15513,0.83571 9.17833,6.58389 11.77396,8.4354 0.50933,0.36331 3.24776,2.32719 6.08542,4.36417 2.83766,2.03699 5.57609,4.00152 6.08542,4.36563 1.51183,1.08078 11.15633,8.00137 12.30312,8.82833 0.58209,0.41974 3.02287,2.17192 5.42396,3.89373 2.40109,1.72182 4.96094,3.56907 5.68854,4.10502 0.72761,0.53594 3.14535,2.27339 5.37277,3.86098 2.22743,1.5876 4.66821,3.33215 5.42396,3.87679 0.75576,0.54464 2.14801,1.53377 3.0939,2.19807 0.94588,0.66429 2.37463,1.68141 3.175,2.26025 2.08256,1.50615 4.18116,3.00635 5.55625,3.97192 0.65484,0.45982 2.41101,1.72368 3.9026,2.80858 l 2.71198,1.97254 v 42.73786 c 0,40.64656 -0.0228,42.73192 -0.46514,42.61624 z m 0,-169.8625 c -0.25582,-0.0669 -1.41668,-0.80311 -2.57968,-1.63603 -1.16301,-0.83292 -4.25768,-3.04862 -6.87706,-4.92379 -2.61937,-1.87517 -5.35781,-3.84009 -6.08541,-4.3665 -1.20657,-0.87293 -9.56192,-6.85855 -11.77396,-8.43466 -0.50932,-0.3629 -3.62232,-2.60079 -6.91777,-4.9731 -3.29545,-2.37231 -8.81589,-6.33736 -12.26765,-8.81121 -3.45175,-2.47385 -8.92907,-6.40292 -12.17182,-8.73125 -3.24274,-2.32833 -7.96168,-5.70956 -10.48652,-7.51384 -2.52484,-1.80427 -5.06686,-3.62594 -5.64895,-4.04815 -1.17979,-0.85575 -4.8685,-3.4861 -7.16154,-5.10676 -0.82357,-0.58208 -1.89889,-1.35599 -2.3896,-1.71979 -1.52366,-1.12963 -6.07364,-4.38743 -9.23427,-6.61178 -1.08331,-0.76239 -10.00372,-7.14613 -11.64167,-8.33115 -1.48444,-1.07396 -7.70273,-5.5325 -16.79847,-12.04457 -3.35373,-2.40109 -6.54199,-4.68817 -7.08503,-5.0824 -0.88243,-0.64061 -9.88169,-7.10124 -12.23213,-8.78154 -2.01026,-1.4371 -11.30661,-8.10989 -12.30312,-8.83101 -0.58209,-0.42122 -3.0824,-2.21384 -5.55625,-3.9836 -2.47386,-1.76976 -6.58151,-4.71038 -9.12813,-6.5347 -2.54661,-1.82433 -5.08374,-3.64039 -5.63806,-4.03571 -0.55432,-0.39531 -1.65257,-1.195 -2.44056,-1.77708 -0.78798,-0.58209 -2.45529,-1.77271 -3.70513,-2.64584 -1.24983,-0.87312 -2.67992,-1.88515 -3.17798,-2.24895 -0.94927,-0.6934 -1.70124,-1.23616 -6.83482,-4.93332 -3.39921,-2.44807 -3.30958,-2.42664 -4.92636,-1.17788 -0.53527,0.41342 -7.31879,5.30083 -11.64167,8.38761 -0.50932,0.36368 -3.24776,2.32787 -6.08542,4.36486 -2.83765,2.03698 -5.57609,4.00086 -6.08541,4.36417 -2.67799,1.91025 -10.62698,7.60566 -11.77396,8.43598 -1.39964,1.01323 -7.38937,5.28197 -8.73125,6.22257 -0.43656,0.30601 -1.98438,1.42099 -3.43959,2.47773 -1.4552,1.05675 -3.3602,2.42407 -4.23333,3.03849 -1.87682,1.32074 -3.94313,2.79567 -5.95312,4.24934 -0.80037,0.57884 -2.22912,1.59596 -3.175,2.26025 -0.94589,0.6643 -2.33814,1.65343 -3.0939,2.19807 -0.75575,0.54464 -3.19653,2.28919 -5.42396,3.87679 -2.22742,1.5876 -4.64516,3.32573 -5.37277,3.86253 -0.7276,0.53679 -3.30346,2.393 -5.72412,4.12491 -5.78579,4.13957 -15.51291,11.11222 -22.84807,16.3781 -3.24328,2.32834 -8.47379,6.07881 -11.62336,8.33438 -9.00517,6.44908 -14.98788,10.74 -16.42528,11.78056 -0.72761,0.52673 -2.8112,2.01116 -4.63021,3.29873 -1.81901,1.28758 -3.60495,2.57282 -3.96875,2.85609 -0.3638,0.28327 -1.19724,0.8859 -1.85208,1.33919 -0.65485,0.45329 -1.84547,1.29571 -2.64584,1.87204 -0.80036,0.57634 -2.22911,1.59321 -3.175,2.25973 -0.94588,0.66651 -2.33341,1.65564 -3.08339,2.19806 -0.74998,0.54242 -3.19076,2.28517 -5.423959,3.87276 -2.2332,1.5876 -4.65567,3.32573 -5.38327,3.86253 -0.72761,0.53679 -3.30346,2.393 -5.72412,4.12492 -8.20936,5.87356 -16.94069,12.13463 -20.68933,14.83595 -2.05402,1.48015 -3.82714,2.63398 -3.94026,2.56407 -0.11312,-0.0699 -0.20567,-19.34092 -0.20567,-42.82446 v -42.69736 l 3.99389,-2.86151 c 2.19665,-1.57383 4.75306,-3.39729 5.68092,-4.05213 0.92786,-0.65485 3.66462,-2.61938 6.0817,-4.36563 2.41707,-1.74625 5.07715,-3.65125 5.91129,-4.23333 0.83413,-0.58209 3.74525,-2.66568 6.46914,-4.63021 2.7239,-1.96453 7.06217,-5.08429 9.640609,-6.9328 2.57845,-1.8485 5.28339,-3.79207 6.011,-4.31903 2.9752,-2.15475 6.9363,-4.98585 7.8052,-5.57856 0.50933,-0.34743 1.58089,-1.11112 2.38125,-1.6971 0.80037,-0.58597 2.05052,-1.48289 2.77813,-1.99315 0.7276,-0.51027 2.15635,-1.52324 3.175,-2.25107 1.01864,-0.72782 2.50693,-1.78948 3.30729,-2.35924 0.80036,-0.56977 2.88396,-2.06862 4.63021,-3.3308 1.74625,-1.26217 3.82984,-2.75228 4.63021,-3.31136 0.80036,-0.55907 3.36021,-2.39542 5.68854,-4.08078 2.32833,-1.68535 5.06677,-3.6462 6.08541,-4.35743 1.01865,-0.71123 3.75709,-2.6775 6.08542,-4.36949 2.32833,-1.69198 4.53099,-3.27574 4.89479,-3.51946 0.36381,-0.24372 2.86412,-2.02865 5.55625,-3.96651 2.69214,-1.93786 5.31151,-3.82095 5.82084,-4.18463 0.50932,-0.36369 3.24776,-2.32787 6.08541,-4.36486 2.83766,-2.03699 5.5761,-4.00086 6.08542,-4.36417 2.67799,-1.91025 10.62697,-7.60566 11.77396,-8.43599 0.7276,-0.52672 2.8112,-2.017458 4.63021,-3.312738 1.81901,-1.29528 3.9026,-2.78627 4.6302,-3.31331 0.72761,-0.52705 2.8112,-2.01174 4.63021,-3.29931 1.81901,-1.28758 3.60495,-2.57282 3.96875,-2.85609 0.36381,-0.28327 1.19724,-0.8859 1.85209,-1.33919 0.65484,-0.45329 1.84547,-1.29571 2.64583,-1.87205 0.80036,-0.57633 2.22911,-1.5932 3.175,-2.25972 0.94589,-0.66651 2.33341,-1.65564 3.08339,-2.19806 0.74999,-0.54242 3.19077,-2.28517 5.42396,-3.87276 2.2332,-1.5876 4.65567,-3.32507 5.38327,-3.86104 1.19284,-0.87869 4.40898,-3.18826 12.5446,-9.00855 1.51526,-1.08403 4.61089,-3.30854 6.87917,-4.94336 2.26828,-1.63481 4.33195,-2.97427 4.58593,-2.97656 0.25398,-0.002 1.68273,0.88282 3.175,1.9669 1.49227,1.08409 3.07041,2.22144 3.50697,2.52744 1.32904,0.9316 7.32385,5.20375 8.73125,6.22225 2.23051,1.61418 13.2883,9.55525 19.33529,13.8855 3.1498,2.25557 8.38049,6.00604 11.62377,8.33437 7.33516,5.26588 17.06228,12.238528 22.84807,16.378098 2.42066,1.73191 4.99652,3.58813 5.72412,4.12492 0.72761,0.53679 3.14535,2.27493 5.37277,3.86253 2.22743,1.58759 4.66821,3.33215 5.42396,3.87679 0.75576,0.54464 2.14801,1.53376 3.0939,2.19806 0.94588,0.6643 2.37463,1.68141 3.175,2.26025 2.00999,1.45367 4.0763,2.92861 5.95312,4.24934 0.87313,0.61443 2.77813,1.98175 4.23333,3.03849 1.45521,1.05675 3.00303,2.17147 3.43959,2.47716 0.89022,0.62335 9.59654,6.86079 11.64166,8.34039 1.15513,0.83571 9.17833,6.58389 11.77396,8.4354 0.50933,0.36331 3.24776,2.32719 6.08542,4.36418 2.83766,2.03698 5.57609,4.00151 6.08542,4.36562 1.51183,1.08078 11.15633,8.00137 12.30312,8.82833 0.58209,0.41974 3.02287,2.17193 5.42396,3.89374 2.40109,1.72181 4.96094,3.56907 5.68854,4.10501 0.72761,0.53595 3.14535,2.27339 5.37277,3.86099 2.22743,1.58759 4.66821,3.33215 5.42396,3.87679 0.75576,0.54463 2.14801,1.53376 3.0939,2.19806 0.94588,0.6643 2.37463,1.68141 3.175,2.26025 2.08256,1.50616 4.18116,3.00636 5.55625,3.97192 0.65484,0.45982 2.41101,1.72368 3.9026,2.80858 l 2.71198,1.97254 v 42.73787 c 0,40.64655 -0.0228,42.73191 -0.46514,42.61623 z"
       id="path16" /></g></svg>
