<?xml version="1.0" encoding="UTF-8" standalone="no"?>
<!-- Created with Inkscape (http://www.inkscape.org/) -->

<svg
   width="1920mm"
   height="1920mm"
   viewBox="0 0 1920 1920"
   version="1.1"
   id="svg1"
   xml:space="preserve"
   inkscape:version="1.4.3 (0d15f75042, 2025-12-25)"
   sodipodi:docname="default.svg"
   xmlns:inkscape="http://www.inkscape.org/namespaces/inkscape"
   xmlns:sodipodi="http://sodipodi.sourceforge.net/DTD/sodipodi-0.dtd"
   xmlns="http://www.w3.org/2000/svg"
   xmlns:svg="http://www.w3.org/2000/svg"><sodipodi:namedview
     id="namedview1"
     pagecolor="#000000"
     bordercolor="#000000"
     borderopacity="0.25"
     inkscape:showpageshadow="2"
     inkscape:pageopacity="0.0"
     inkscape:pagecheckerboard="0"
     inkscape:deskcolor="#d1d1d1"
     inkscape:document-units="mm"
     inkscape:zoom="0.044709684"
     inkscape:cx="4976.5505"
     inkscape:cy="6117.243"
     inkscape:window-width="1920"
     inkscape:window-height="1011"
     inkscape:window-x="0"
     inkscape:window-y="0"
     inkscape:window-maximized="1"
     inkscape:current-layer="layer1" /><defs
     id="defs1" /><g
     inkscape:label="Capa 1"
     inkscape:groupmode="layer"
     id="layer1"><path
       style="display:inline;fill:#ffffff;fill-opacity:1"
       d="m 679.84733,1468.4283 c 0.14896,-62.6179 0.40363,-113.9836 0.56594,-114.146 0.16231,-0.1623 176.55432,-0.6025 391.98223,-0.9782 l 391.6872,-0.6832 V 1074.1363 795.65161 l 8.25,0.64223 c 4.5376,0.35323 55.838,0.64493 114.0009,0.64822 l 105.7509,0.006 v 392.00304 392.0031 l -429.2534,7e-4 c -236.0894,4e-4 -463.90366,0.2986 -506.254,0.6626 l -77.0006,0.6617 z M 221.82916,731.937 c 0.14095,-215.78614 0.39688,-392.47904 0.56874,-392.65089 0.25926,-0.25927 414.28055,-0.42269 902.9321,-0.35641 l 108.7509,0.0147 v 392.00309 392.00311 l -429.25342,7e-4 c -236.08936,4e-4 -463.90365,0.2985 -506.25399,0.6624 l -77.00061,0.6617 z M 764.24069,894.94883 H 1006.0791 V 787.94799 680.94714 H 728.07688 450.07469 v 107.66299 107.66298 l 36.16381,-0.66214 c 19.8901,-0.36418 144.99109,-0.66214 278.00219,-0.66214 z"
       id="path2" /></g></svg>
