<?xml version="1.0" encoding="UTF-8" standalone="no"?>
<!-- Created with Inkscape (http://www.inkscape.org/) -->

<svg
   width="1920mm"
   height="1920mm"
   viewBox="0 0 1920 1920"
   version="1.1"
   id="svg1"
   xml:space="preserve"
   inkscape:version="1.4.3 (0d15f75042, 2025-12-25)"
   sodipodi:docname="default.svg"
   xmlns:inkscape="http://www.inkscape.org/namespaces/inkscape"
   xmlns:sodipodi="http://sodipodi.sourceforge.net/DTD/sodipodi-0.dtd"
   xmlns="http://www.w3.org/2000/svg"
   xmlns:svg="http://www.w3.org/2000/svg"><sodipodi:namedview
     id="namedview1"
     pagecolor="#000000"
     bordercolor="#000000"
     borderopacity="0.25"
     inkscape:showpageshadow="2"
     inkscape:pageopacity="0.0"
     inkscape:pagecheckerboard="0"
     inkscape:deskcolor="#d1d1d1"
     inkscape:document-units="mm"
     inkscape:zoom="0.17883873"
     inkscape:cx="796.80725"
     inkscape:cy="746.48258"
     inkscape:window-width="1920"
     inkscape:window-height="1011"
     inkscape:window-x="0"
     inkscape:window-y="0"
     inkscape:window-maximized="1"
     inkscape:current-layer="layer1" /><defs
     id="defs1" /><g
     inkscape:label="Capa 1"
     inkscape:groupmode="layer"
     id="layer1"><path
       style="fill:#ffffff;fill-opacity:1"
       d="M 617.66667,1693.3333 C 617.3,1692.9667 617,1642.5667 617,1581.3333 V 1470 h -42.83612 c -23.55986,0 -61.13486,-0.2982 -83.5,-0.6626 L 450,1468.6747 V 1385.8374 1303 H 338.53518 c -109.17854,0 -111.48605,-0.04 -112.5,-1.9343 C 225.33921,1299.7653 225,1262.2858 225,1186.6882 c 0,-103.3639 0.1335,-112.5541 1.65332,-113.8158 1.37486,-1.1412 20.32253,-1.4194 112.5,-1.6516 L 450,1070.9415 V 959.48358 848.02563 l -111.41682,-0.26281 c -61.27926,-0.14455 -111.79176,-0.63775 -112.25,-1.096 -0.45825,-0.45825 -0.95133,-51.81096 -1.09574,-114.11714 -0.24262,-104.6854 -0.13611,-113.38891 1.40336,-114.66681 1.39153,-1.15511 19.92279,-1.4282 112.51256,-1.6581 L 450,615.94953 v -82.31199 -82.312 l 42.16399,-0.66277 C 515.35418,450.29825 552.92723,450 575.65966,450 l 41.33168,0 0.25433,-111.75 L 617.5,226.5 732.25,226.24578 847,225.99156 V 337.99578 450 H 959.5 1072 l 0.014,-109.75 c 0.01,-60.3625 0.2854,-110.7644 0.6177,-112.00422 l 0.6041,-2.25423 114.1322,0.25423 114.1323,0.25422 0.2543,111.25 0.2544,111.25 43.2456,0.001 c 23.7852,7.2e-4 61.8082,0.29894 84.4957,0.66269 l 41.25,0.66138 v 82.81197 82.81196 l 110.3466,0.27534 c 92.1641,0.22997 110.6212,0.5032 112.0126,1.65821 1.5395,1.2779 1.646,9.98148 1.4034,114.66681 -0.1444,62.30618 -0.6375,113.65889 -1.0958,114.11714 -0.4582,0.45825 -50.7457,0.95147 -111.75,1.09605 L 1471,848.02574 v 111.45777 111.45779 l 110.3467,0.2793 c 91.7535,0.2323 110.6252,0.5107 112,1.6518 1.5198,1.2617 1.6533,10.452 1.6533,113.8158 0,75.5976 -0.3392,113.0771 -1.0352,114.3775 -1.0139,1.8945 -3.3158,1.9343 -112,1.9343 H 1471 l -0,42.25 c -7e-4,23.2375 -0.299,60.8125 -0.6627,83.5 l -0.6614,41.25 h -83.833 -83.8329 l -0.2544,111.75 -0.2543,111.75 -114.1323,0.2542 -114.1322,0.2542 -0.6041,-2.2542 c -0.3323,-1.2398 -0.6102,-51.8667 -0.6177,-112.5042 L 1072,1469 H 959.5 847 V 1581.5 1694 H 732.66667 c -62.88334,0 -114.63334,-0.3 -115,-0.6667 z M 1115.75,1240.3342 1241,1239.6693 V 959.44215 679.21498 l -17.25,-0.69201 c -19.287,-0.77373 -543.2958,-0.31096 -544.08698,0.4805 -0.27681,0.27691 -0.83275,88.74551 -1.23541,196.59689 -0.5511,147.61004 -0.44722,196.26944 0.42014,196.80554 0.85477,0.5283 1.15225,22.2529 1.15225,84.1474 v 83.4352 l 83.25,0.2616 c 45.7875,0.1438 115.65,0.3712 155.25,0.5053 39.6,0.134 128.3625,-0.055 197.25,-0.4212 z"
       id="path1" /></g></svg>
