<?xml version="1.0" encoding="UTF-8" standalone="no"?>
<!-- Created with Inkscape (http://www.inkscape.org/) -->

<svg
   width="1920"
   height="1920"
   viewBox="0 0 508 508"
   version="1.1"
   id="svg1"
   xml:space="preserve"
   inkscape:export-filename="click.svg"
   inkscape:export-xdpi="96"
   inkscape:export-ydpi="96"
   xmlns:inkscape="http://www.inkscape.org/namespaces/inkscape"
   xmlns:sodipodi="http://sodipodi.sourceforge.net/DTD/sodipodi-0.dtd"
   xmlns="http://www.w3.org/2000/svg"
   xmlns:svg="http://www.w3.org/2000/svg"><sodipodi:namedview
     id="namedview1"
     pagecolor="#000000"
     bordercolor="#000000"
     borderopacity="0.25"
     inkscape:showpageshadow="2"
     inkscape:pageopacity="0.0"
     inkscape:pagecheckerboard="0"
     inkscape:deskcolor="#d1d1d1"
     inkscape:document-units="mm"><inkscape:page
       x="0"
       y="0"
       width="508"
       height="508"
       id="page2"
       margin="0"
       bleed="0" /></sodipodi:namedview><defs
     id="defs1" /><g
     inkscape:label="Capa 1"
     inkscape:groupmode="layer"
     id="layer1"><path
       style="fill:#ffffff;fill-opacity:1"
       d="m 252.28021,446.18255 c -6.02198,-0.63564 -15.02453,-3.3172 -21.29746,-6.34382 -5.11727,-2.46903 -18.50531,-9.92066 -34.66192,-19.29243 -3.56526,-2.06806 -11.06619,-6.35379 -16.66875,-9.52385 -5.60255,-3.17006 -12.68677,-7.21796 -15.74271,-8.99535 -3.05593,-1.77738 -10.43781,-5.99825 -16.40416,-9.37971 -5.96636,-3.38146 -13.46729,-7.66806 -16.66875,-9.52577 -3.20146,-1.85771 -8.08302,-4.65637 -10.84792,-6.21924 -6.61519,-3.73926 -11.55863,-6.70133 -14.84372,-8.89421 -9.468801,-6.32066 -16.007829,-13.76901 -19.945994,-22.7197 -1.456221,-3.30971 -3.264487,-8.78826 -3.932192,-11.91347 -1.259188,-5.89366 -1.230176,-4.03104 -1.230176,-78.97813 0,-66.54927 0.02772,-70.86504 0.478201,-74.4619 1.095746,-8.74891 4.300351,-17.74036 8.653818,-24.2808 1.960916,-2.94599 5.951289,-7.60611 8.249524,-9.63413 4.945919,-4.36441 8.198579,-6.48423 22.173669,-14.45103 5.60255,-3.19386 11.91286,-6.79519 14.02291,-8.00295 2.11006,-1.20776 7.17021,-4.09879 11.24479,-6.42452 4.07459,-2.32572 11.21834,-6.51844 15.875,-9.31715 4.65667,-2.7987 11.32417,-6.61173 14.81667,-8.473387 6.10359,-3.253483 13.13566,-7.212685 28.17813,-15.864871 26.97581,-15.51606 29.20356,-16.630703 37.30625,-18.666032 4.67913,-1.17536 8.12034,-1.58526 13.26312,-1.579836 8.50941,0.009 15.11654,1.456543 22.77403,4.9896 3.03904,1.402171 11.34102,5.977091 24.57315,13.541375 6.17324,3.528998 18.42735,10.518802 27.23136,15.532898 8.80401,5.014093 16.12636,9.209423 16.27188,9.322943 0.14552,0.11353 7.46786,4.30776 16.27187,9.32052 36.87378,20.99492 40.01226,22.84678 44.95722,26.52708 5.68368,4.23008 9.3823,8.03643 12.86719,13.24197 4.13806,6.1812 7.52688,15.43702 8.62814,23.56585 0.51384,3.79287 0.52582,145.29503 0.0126,149.06542 -1.95535,14.36552 -8.52963,26.82725 -18.62219,35.29888 -4.16921,3.4996 -8.23868,6.07571 -21.78152,13.7884 -6.83948,3.8951 -15.05479,8.59326 -18.25625,10.44036 -3.20146,1.8471 -10.70239,6.13334 -16.66875,9.52498 -5.96635,3.39163 -13.46729,7.67788 -16.66875,9.525 -3.20146,1.84711 -10.70239,6.13336 -16.66875,9.525 -5.96635,3.39163 -13.46729,7.67751 -16.66875,9.52416 -11.71525,6.75752 -20.17262,11.52925 -22.82128,12.87597 -5.01342,2.54908 -13.64328,5.6 -18.98289,6.71103 -2.46037,0.51194 -6.61332,0.81647 -8.46666,0.62085 z m -20.776,-51.95283 c 1.73698,-0.89103 2.86514,-2.65487 3.59112,-5.61462 0.73723,-3.00562 0.88661,-13.00412 0.89051,-59.60573 0.004,-46.10542 -0.13995,-55.4449 -0.90209,-58.58187 -0.9948,-4.09457 -3.4595,-7.36169 -7.754,-10.27844 -2.66465,-1.80978 -10.01307,-6.19061 -19.63183,-11.70371 -3.71078,-2.12688 -8.59235,-4.94163 -10.84792,-6.255 -6.89465,-4.01461 -13.90656,-8.06445 -25.79688,-14.89942 -6.25739,-3.59696 -13.28208,-7.67604 -15.61041,-9.06462 -6.01614,-3.58791 -21.51169,-12.35349 -24.37475,-13.78839 -3.3079,-1.65786 -5.43996,-2.3346 -7.39052,-2.34586 -3.81514,-0.022 -5.90313,2.52532 -6.76373,8.25169 -0.41289,2.74732 -0.64173,93.74677 -0.26281,104.51042 0.3052,8.66973 0.68133,11.23479 2.10851,14.37913 2.4263,5.34559 6.2109,8.60287 17.10413,14.72096 2.91042,1.63461 6.83948,3.89984 8.73125,5.03384 1.89177,1.13401 5.7613,3.36149 8.59896,4.94997 8.39701,4.70052 17.17939,9.70964 23.8125,13.5817 3.41974,1.99627 7.46786,4.31604 8.99583,5.15506 1.52797,0.83902 5.51657,3.09676 8.86354,5.0172 3.34698,1.92044 7.33558,4.18431 8.86355,5.03082 1.52797,0.84651 5.2189,2.96692 8.20208,4.71204 6.66752,3.90039 12.30924,6.68348 14.56784,7.18637 1.94731,0.43359 3.65738,0.29981 5.00512,-0.39154 z m 50.32022,0.41035 c 2.98728,-0.63314 2.9393,-0.60786 26.28286,-13.85013 4.22011,-2.39396 10.41136,-5.92851 13.75833,-7.85454 3.34698,-1.92604 10.84792,-6.21105 16.66875,-9.52225 5.82084,-3.3112 13.32178,-7.60026 16.66875,-9.53125 3.34698,-1.93098 8.72525,-5.01138 11.95171,-6.84533 12.89568,-7.33001 15.83065,-9.28054 18.94346,-12.58948 2.83223,-3.01067 4.15313,-5.7391 5.13031,-10.59709 0.41568,-2.06657 0.46034,-6.52978 0.55065,-55.03333 0.065,-34.89896 0.006,-53.90502 -0.1753,-56.09167 -0.45965,-5.55691 -1.41315,-8.05117 -3.68864,-9.64911 -1.07164,-0.75254 -1.29123,-0.80166 -3.56562,-0.79744 -3.92421,0.007 -1.27842,-1.39191 -45.02157,23.80888 -4.2201,2.43124 -9.22072,5.34724 -11.1125,6.48001 -1.89177,1.13277 -8.20208,4.79359 -14.02291,8.13517 -20.92922,12.01485 -28.0883,16.16465 -30.66331,17.77412 -7.86002,4.91279 -10.0066,7.96784 -10.7517,15.30206 -0.20219,1.99012 -0.25967,19.3156 -0.19158,57.74423 0.0891,50.30706 0.13444,55.05059 0.54137,56.68828 0.89337,3.59538 2.57457,5.81737 4.86807,6.43398 1.63374,0.43924 1.73301,0.4391 3.82887,-0.005 z M 259.55625,229.28699 c 2.8234,-0.99494 7.20059,-3.27304 13.75833,-7.1605 7.67228,-4.54817 9.87244,-6.0095 11.48884,-7.63081 1.77005,-1.77543 2.53582,-3.3588 2.52827,-5.22765 -0.0144,-3.57298 -2.71253,-6.40313 -10.44523,-10.95647 -11.05081,-6.50719 -14.9988,-8.79324 -19.31459,-11.18392 -2.61937,-1.45098 -6.19125,-3.50442 -7.9375,-4.56321 -1.74625,-1.05879 -5.8539,-3.44333 -9.12812,-5.29898 -3.27422,-1.85565 -9.70359,-5.5433 -14.2875,-8.19479 -38.70712,-22.38949 -41.75453,-24.06413 -45.56869,-25.04127 -2.38216,-0.61028 -6.31635,-0.37394 -8.90781,0.53512 -2.25877,0.79235 -6.97043,3.21974 -13.38913,6.89792 -11.35839,6.50882 -14.42942,9.30538 -14.41398,13.12579 0.0162,4.02041 3.0846,6.71262 16.07158,14.10143 3.24001,1.84337 7.4072,4.28204 9.26042,5.41927 1.85322,1.13723 5.45308,3.23594 7.99969,4.6638 2.54662,1.42786 9.98802,5.71289 16.53646,9.5223 6.54844,3.8094 15.18047,8.81189 19.18229,11.11664 4.00183,2.30475 11.32417,6.53814 16.27188,9.40754 16.03277,9.29812 16.67349,9.63848 20.24062,10.75195 2.78171,0.86831 7.13273,0.74533 10.05417,-0.28416 z m 77.62243,-44.98528 c 1.11656,-0.37482 2.95091,-1.14446 4.07633,-1.7103 3.02777,-1.52234 15.24183,-8.62341 17.43886,-10.1387 7.29446,-5.03098 7.45071,-10.40555 0.44899,-15.44346 -1.72712,-1.24271 -10.23127,-6.25052 -19.94911,-11.74738 -3.27536,-1.85269 -7.56161,-4.31868 -9.525,-5.47996 -1.96338,-1.16129 -4.22464,-2.47258 -5.025,-2.91398 -3.42896,-1.89106 -19.91074,-11.2838 -25.13542,-14.32432 -3.12869,-1.82077 -7.95708,-4.58212 -10.72974,-6.13635 -2.77266,-1.55423 -6.99938,-3.9592 -9.39271,-5.34438 -6.24892,-3.61668 -13.77949,-7.63489 -16.39363,-8.74742 -5.35813,-2.28032 -9.99565,-2.529849 -15.28449,-0.8224 -2.74448,0.88602 -8.05673,3.48741 -12.89005,6.3122 -10.44782,6.10613 -12.776,8.42508 -12.51851,12.46891 0.0897,1.40909 0.2644,1.89763 1.12558,3.14802 2.03761,2.95852 7.65917,6.49871 35.6023,22.4206 2.69214,1.53397 7.87136,4.51016 11.50938,6.61377 3.63802,2.1036 10.96036,6.33248 16.27187,9.3975 5.31151,3.06503 12.15761,7.0261 15.21354,8.80238 7.46257,4.33765 18.53549,10.51916 21.44761,11.97322 2.20391,1.10045 4.91941,2.11404 6.46594,2.41348 1.56913,0.30383 5.25272,-0.0732 7.24326,-0.74143 z"
       id="path1" /></g></svg>
